<svg width="112" height="123" viewBox="0 0 112 123" fill="none" xmlns="http://www.w3.org/2000/svg">
<path d="M50.352 41.28C49.4987 42.56 48.6453 43.5413 47.792 44.224C47.024 44.8213 46.64 45.248 46.64 45.504C46.64 45.9307 46.512 46.4 46.256 46.912C46 47.3387 45.872 47.6373 45.872 47.808C45.872 47.8933 45.9147 47.936 46 47.936L46.64 49.6C46.64 50.7093 46.2133 51.264 45.36 51.264L46 51.648C45.8293 51.8187 45.5307 51.9893 45.104 52.16C44.6773 52.2453 44.464 52.544 44.464 53.056C44.464 53.4827 44.5493 53.9093 44.72 54.336C44.976 54.7627 45.104 55.104 45.104 55.36C45.104 55.36 44.8907 55.872 44.464 56.896C44.1227 57.92 43.696 59.2 43.184 60.736C42.672 62.1867 42.2027 63.7227 41.776 65.344C41.4347 66.9653 41.264 68.416 41.264 69.696L41.904 69.312C41.904 69.824 41.7333 70.2933 41.392 70.72L40.88 71.36C40.88 71.7013 41.008 72.0427 41.264 72.384L40.88 73.024C40.88 73.536 40.88 74.0053 40.88 74.432C40.88 74.8587 41.008 75.2 41.264 75.456L40.88 76.48C42.0747 76.48 43.6107 76.352 45.488 76.096C47.3653 75.7547 49.2427 75.4133 51.12 75.072C53.0827 74.7307 54.8747 74.432 56.496 74.176C58.1173 73.8347 59.2693 73.664 59.952 73.664C61.8293 73.664 63.0667 73.8347 63.664 74.176C64.3467 74.5173 65.0293 74.816 65.712 75.072C65.5413 75.2427 65.4133 75.6267 65.328 76.224C65.328 76.8213 64.9867 77.12 64.304 77.12C64.4747 77.2907 64.6453 77.4613 64.816 77.632C64.9867 77.8027 65.1573 77.888 65.328 77.888C65.4987 77.888 65.6267 77.8453 65.712 77.76L65.328 78.144C65.1573 78.144 64.944 78.3147 64.688 78.656C64.432 78.9973 64.2187 79.168 64.048 79.168V78.528C63.9627 78.4427 63.8773 78.4 63.792 78.4C63.7067 78.4 63.6213 78.4853 63.536 78.656C63.536 78.8267 63.4507 78.9973 63.28 79.168C63.28 79.3387 63.3227 79.5947 63.408 79.936C63.5787 80.192 63.664 80.4053 63.664 80.576C63.3227 80.576 63.152 80.576 63.152 80.576C63.2373 80.4907 63.1947 80.3627 63.024 80.192C62.6827 80.192 62.384 80.4053 62.128 80.832C61.9573 81.2587 61.7867 81.5147 61.616 81.6C61.616 81.7707 61.744 81.984 62 82.24C62 82.5813 61.8293 82.88 61.488 83.136C61.1467 83.3067 60.8907 83.392 60.72 83.392C60.5493 83.392 60.2933 83.2213 59.952 82.88C59.2693 83.2213 58.8427 83.392 58.672 83.392C58.5867 83.392 58.5013 83.392 58.416 83.392C58.416 83.3067 58.3733 83.264 58.288 83.264C58.1173 83.264 57.392 83.3067 56.112 83.392C54.832 83.4773 53.2107 83.648 51.248 83.904C49.3707 84.0747 47.28 84.3307 44.976 84.672C42.672 85.0133 40.4107 85.44 38.192 85.952C38.0213 86.0373 37.5093 86.208 36.656 86.464C35.8027 86.6347 34.864 86.8907 33.84 87.232C32.9013 87.488 32.0053 87.7867 31.152 88.128C30.2987 88.4693 29.8293 88.768 29.744 89.024C29.744 89.1093 29.5307 89.152 29.104 89.152C28.6773 89.152 28.1227 89.1947 27.44 89.28C26.8427 89.3653 26.16 89.5787 25.392 89.92C24.624 90.2613 23.8987 90.7733 23.216 91.456L22.96 91.712C22.7893 91.8827 22.2773 92.1387 21.424 92.48C20.5707 92.9067 20.1013 93.12 20.016 93.12C19.8453 93.12 19.504 93.2053 18.992 93.376C18.5653 93.632 18.0533 93.888 17.456 94.144C16.944 94.4853 16.3893 94.7413 15.792 94.912C15.28 95.168 14.8533 95.296 14.512 95.296C14.3413 95.296 14.2133 95.2533 14.128 95.168C13.7013 95.5947 12.6347 96.1493 10.928 96.832C9.22133 97.5147 7.64267 97.856 6.192 97.856C4.74133 97.856 4.016 97.344 4.016 96.32C4.016 95.8933 4.10133 95.5093 4.272 95.168C2.992 94.5707 2.096 93.8453 1.584 92.992C1.072 92.224 0.816 91.3707 0.816 90.432L1.456 87.616C1.712 87.2747 1.84 86.9333 1.84 86.592C1.84 86.1653 2.43733 85.5253 3.632 84.672C3.71733 84.672 4.10133 84.544 4.784 84.288C5.46667 84.032 6.192 83.776 6.96 83.52C7.81333 83.1787 8.58133 82.88 9.264 82.624C10.032 82.368 10.5013 82.24 10.672 82.24C10.7573 82.1547 11.0133 82.0693 11.44 81.984C11.8667 81.8133 12.336 81.6427 12.848 81.472C13.36 81.216 13.8293 80.96 14.256 80.704C14.768 80.448 15.152 80.1493 15.408 79.808C16.0907 79.808 16.56 79.552 16.816 79.04C17.072 78.4427 17.456 78.144 17.968 78.144C18.0533 78.2293 18.1387 78.272 18.224 78.272C18.6507 78.272 18.992 77.8453 19.248 76.992C19.5893 76.1387 19.8453 75.6267 20.016 75.456L20.528 74.048C20.4427 73.9627 20.4 73.8773 20.4 73.792C20.4 73.6213 20.4427 73.4933 20.528 73.408C20.6133 73.2373 20.7413 73.024 20.912 72.768L21.168 73.024C21.7653 73.024 22.064 72.8533 22.064 72.512C22.1493 72.0853 22.192 71.7013 22.192 71.36L21.552 70.336C21.4667 70.2507 21.424 70.1653 21.424 70.08C21.424 69.6533 21.7653 69.2693 22.448 68.928C23.1307 68.5013 23.6427 67.8187 23.984 66.88C24.496 66.624 24.8373 66.368 25.008 66.112C25.1787 65.7707 25.3067 65.4293 25.392 65.088C25.5627 64.7467 25.6907 64.4053 25.776 64.064C25.9467 63.6373 26.2453 63.2107 26.672 62.784C26.672 62.4427 26.5867 62.0587 26.416 61.632C26.2453 61.2053 26.16 60.8213 26.16 60.48C26.16 60.3093 26.2453 60.0533 26.416 59.712C26.672 59.2853 26.928 58.8587 27.184 58.432C27.44 57.92 27.696 57.4933 27.952 57.152C28.208 56.8107 28.4213 56.5547 28.592 56.384C28.5067 56.384 28.464 56.3413 28.464 56.256C28.464 56.0853 28.848 55.5733 29.616 54.72C30.384 53.8667 30.768 52.8427 30.768 51.648L31.024 51.264H30.384C30.384 50.4107 30.7253 49.472 31.408 48.448C32.0907 47.3387 32.432 46.3573 32.432 45.504H32.176C32.0053 45.504 31.792 45.6747 31.536 46.016C31.3653 46.3573 31.1947 46.7413 31.024 47.168V46.528C31.024 46.3573 31.1093 46.016 31.28 45.504C31.536 44.9067 31.792 44.3093 32.048 43.712C32.3893 43.0293 32.688 42.432 32.944 41.92C33.2 41.3227 33.3707 40.9387 33.456 40.768L33.072 40.384C33.328 39.872 33.5413 39.6587 33.712 39.744C33.968 39.744 34.096 39.5307 34.096 39.104H33.2C32.944 39.104 32.688 39.104 32.432 39.104C32.176 39.104 31.9627 39.1893 31.792 39.36C30.5973 38.848 29.4453 38.08 28.336 37.056C27.2267 36.032 25.648 34.4107 23.6 32.192C23.4293 31.8507 23.2587 31.5947 23.088 31.424C22.9173 31.168 22.832 30.9547 22.832 30.784C22.832 30.528 23.0453 30.2293 23.472 29.888C23.984 29.5467 24.24 29.0773 24.24 28.48L23.984 28.224C24.496 27.5413 24.9653 26.7307 25.392 25.792C25.904 24.768 26.16 24.2987 26.16 24.384L26.928 24.768C26.928 24.256 27.0133 23.7867 27.184 23.36C27.44 22.848 27.568 22.2933 27.568 21.696L26.544 23.744V23.104C26.4587 23.0187 26.416 22.848 26.416 22.592C26.416 21.9947 26.5867 21.4827 26.928 21.056C27.3547 20.544 27.696 20.288 27.952 20.288L27.568 20.032L27.952 19.392L28.208 19.648C28.2933 19.4773 28.336 19.264 28.336 19.008C28.336 18.24 28.08 17.856 27.568 17.856C27.4827 17.856 27.44 17.8987 27.44 17.984C27.44 17.984 27.3973 17.984 27.312 17.984C27.1413 17.8133 26.7573 17.6 26.16 17.344C25.5627 17.0027 25.1787 16.7467 25.008 16.576C24.0693 15.9787 23.1733 15.0827 22.32 13.888C21.552 12.6933 21.168 11.7547 21.168 11.072C21.168 10.6453 22.1067 10.1333 23.984 9.536C25.8613 8.85333 28.1227 8.17066 30.768 7.488C31.7067 7.488 32.7307 7.104 33.84 6.336C34.9493 5.48267 35.8453 5.056 36.528 5.056C36.4427 5.056 36.6133 5.01333 37.04 4.92799C37.552 4.75733 38.1067 4.58666 38.704 4.41599C39.3013 4.16 39.8987 3.904 40.496 3.64799C41.0933 3.39199 41.4773 3.17866 41.648 3.008L42.288 2.62399C42.4587 2.45333 42.6293 2.32533 42.8 2.24C43.056 2.15467 43.312 2.02666 43.568 1.856L45.36 0.575996C45.36 0.661329 45.7013 0.917328 46.384 1.34399C46.4693 1.088 46.5973 0.959999 46.768 0.959999H47.024L47.28 1.728C48.304 2.41066 49.1147 2.88 49.712 3.13599C50.3093 3.392 50.7787 3.60533 51.12 3.77599C51.5467 3.94666 51.9307 4.16 52.272 4.41599C52.6133 4.58666 52.9973 4.928 53.424 5.43999C53.2533 5.43999 53.168 5.65333 53.168 6.07999V6.71999H53.424C52.7413 7.744 52.0587 8.46933 51.376 8.896C50.7787 9.23733 50.1387 9.74933 49.456 10.432C48.944 10.2613 48.4747 10.176 48.048 10.176C47.536 10.176 47.152 10.3893 46.896 10.816C46.7253 11.1573 46.4267 11.328 46 11.328C45.8293 11.328 45.7013 11.2853 45.616 11.2C45.104 11.2 44.4213 11.328 43.568 11.584C42.8 11.84 42.2453 12.1387 41.904 12.48C41.904 12.5653 41.904 12.6507 41.904 12.736C41.9893 12.736 42.032 12.8213 42.032 12.992C42.032 13.5893 41.776 14.3147 41.264 15.168C40.8373 15.936 40.624 16.4907 40.624 16.832V16.96C40.4533 16.96 40.112 17.4293 39.6 18.368C39.1733 19.3067 38.6613 20.3733 38.064 21.568C37.4667 22.7627 36.8693 23.9147 36.272 25.024C35.76 26.048 35.376 26.6453 35.12 26.816L35.504 27.456C36.9547 27.0293 38.576 26.4747 40.368 25.792C42.16 25.024 43.8667 24.2987 45.488 23.616C47.1093 22.848 48.4747 22.208 49.584 21.696C50.7787 21.184 51.4613 20.928 51.632 20.928C52.144 20.928 52.6987 21.0987 53.296 21.44C53.8933 21.696 54.4053 21.9093 54.832 22.08H55.216C55.8987 22.08 56.624 22.4213 57.392 23.104C58.2453 23.7013 58.672 24.4267 58.672 25.28C58.672 26.2187 58.416 27.4987 57.904 29.12C57.4773 30.7413 56.9227 32.0213 56.24 32.96L56.496 33.6C56.496 33.7707 56.3253 34.0267 55.984 34.368C55.728 34.7093 55.3867 35.0507 54.96 35.392C54.6187 35.7333 54.2773 36.0747 53.936 36.416C53.5947 36.672 53.3813 36.8427 53.296 36.928L53.68 37.312C53.2533 37.312 52.7413 37.568 52.144 38.08C51.632 38.5067 51.248 38.9333 50.992 39.36L51.248 39.616C51.0773 39.9573 50.9067 40.256 50.736 40.512C50.6507 40.768 50.5227 41.024 50.352 41.28ZM40.24 117.568C40.24 115.349 40.1547 113.088 39.984 110.784C39.8987 108.48 39.856 106.773 39.856 105.664C39.856 104.725 39.8987 103.659 39.984 102.464C40.1547 101.355 40.24 100.501 40.24 99.904C38.96 99.904 37.936 100.075 37.168 100.416C36.4853 100.757 35.8453 101.099 35.248 101.44C34.736 101.867 34.096 102.208 33.328 102.464C32.6453 102.805 31.6213 102.976 30.256 102.976C28.0373 102.976 26.4587 102.848 25.52 102.592C24.6667 102.421 23.6853 101.867 22.576 100.928L22.96 100.544C22.7893 100.544 22.576 100.373 22.32 100.032C22.064 99.6907 21.936 99.4347 21.936 99.264V98.88C21.936 98.4533 22.064 97.856 22.32 97.088C22.576 96.32 22.7893 95.8933 22.96 95.808H25.264C27.7387 94.8693 30.2133 94.1013 32.688 93.504C35.1627 92.9067 37.68 91.968 40.24 90.688H48.432L51.12 91.456C51.12 91.5413 51.2053 91.7973 51.376 92.224C51.632 92.736 51.76 93.1627 51.76 93.504C51.6747 93.6747 51.632 93.76 51.632 93.76L51.376 93.504C51.2907 94.016 51.2053 94.4 51.12 94.656C51.12 94.9973 51.12 95.2533 51.12 95.424C51.12 95.68 51.3333 95.808 51.76 95.808C51.76 98.1973 51.5467 99.9467 51.12 101.056C50.7787 102.251 50.608 103.189 50.608 103.872C50.608 104.128 50.6507 104.299 50.736 104.384C50.736 104.555 50.608 105.024 50.352 105.792C50.096 106.645 49.8827 107.157 49.712 107.328V116.544C49.712 117.653 49.4987 118.507 49.072 119.104C48.6453 119.787 48.432 120.512 48.432 121.28H47.664L47.28 122.688C46.9387 122.688 46.3413 122.475 45.488 122.048C44.6347 121.707 43.952 121.536 43.44 121.536C43.184 121.536 43.0133 121.579 42.928 121.664C42.928 121.408 42.7573 121.195 42.416 121.024C42.16 120.939 41.8613 120.768 41.52 120.512C41.264 120.341 40.9653 120.043 40.624 119.616C40.368 119.189 40.24 118.507 40.24 117.568ZM53.296 37.952C53.296 38.6347 53.1253 38.976 52.784 38.976H51.632C52.0587 38.5493 52.6133 38.208 53.296 37.952ZM27.952 20.672C27.7813 20.672 27.696 20.8 27.696 21.056C27.696 21.2267 27.7813 21.312 27.952 21.312C28.1227 21.312 28.208 21.2267 28.208 21.056C28.208 20.8 28.1227 20.672 27.952 20.672ZM62.256 81.216C62.4267 81.216 62.512 81.344 62.512 81.6C62.512 81.7707 62.4267 81.856 62.256 81.856C62.0853 81.856 62 81.7707 62 81.6C62 81.344 62.0853 81.216 62.256 81.216ZM51.376 37.952C51.2053 37.952 51.12 38.08 51.12 38.336C51.12 38.5067 51.2053 38.592 51.376 38.592C51.5467 38.592 51.632 38.5067 51.632 38.336C51.632 38.08 51.5467 37.952 51.376 37.952ZM64.048 79.552C64.1333 79.552 64.176 79.68 64.176 79.936C64.176 80.1067 64.1333 80.192 64.048 80.192C63.8773 80.192 63.792 80.1067 63.792 79.936C63.792 79.68 63.8773 79.552 64.048 79.552ZM46.768 52.288L46.128 52.672V52.288H46.768ZM45.232 11.584C45.232 11.84 45.104 11.968 44.848 11.968H44.72C44.72 11.6267 44.848 11.456 45.104 11.456C45.1893 11.5413 45.232 11.584 45.232 11.584ZM31.024 54.08C31.024 53.9947 30.9813 53.952 30.896 53.952C30.64 53.952 30.512 54.08 30.512 54.336H30.64C30.896 54.336 31.024 54.2507 31.024 54.08ZM50.992 41.28L50.352 41.664V41.28H50.992ZM29.616 58.176C29.616 58.0907 29.5733 58.048 29.488 58.048C29.232 58.048 29.104 58.176 29.104 58.432H29.232C29.488 58.432 29.616 58.3467 29.616 58.176ZM73.754 100.416C73.3273 99.904 72.858 99.3493 72.346 98.752C71.834 98.24 71.578 97.0453 71.578 95.168C71.578 94.9973 71.706 94.6133 71.962 94.016C72.218 93.4187 72.346 93.0347 72.346 92.864C72.7727 92.5227 72.9433 92.3093 72.858 92.224C72.7727 92.1387 72.9007 91.8827 73.242 91.456C73.5833 91.0293 74.3513 90.304 75.546 89.28C76.826 88.3413 79.002 86.8053 82.074 84.672C82.074 82.88 82.1593 81.5573 82.33 80.704C82.5007 79.8507 82.714 79.2107 82.97 78.784C83.226 78.3573 83.4393 78.016 83.61 77.76C83.7807 77.4187 83.866 76.9067 83.866 76.224L83.482 76.864C83.3967 76.9493 83.3113 76.992 83.226 76.992C83.226 76.992 83.1833 76.8213 83.098 76.48C83.098 76.1387 83.0553 75.7973 82.97 75.456C82.8847 75.1147 82.7993 74.816 82.714 74.56C82.6287 74.304 82.586 74.2187 82.586 74.304C82.586 74.048 82.6713 73.7067 82.842 73.28C83.0127 72.768 83.1833 72.2987 83.354 71.872C83.5247 71.36 83.6953 70.9333 83.866 70.592C84.122 70.1653 84.2927 69.9093 84.378 69.824C84.122 69.824 83.994 69.7387 83.994 69.568C83.994 69.6533 84.0793 69.3973 84.25 68.8C84.4207 68.1173 84.506 67.6053 84.506 67.264C84.4207 67.1787 84.378 67.0933 84.378 67.008C84.378 66.6667 84.5487 66.24 84.89 65.728C85.3167 65.1307 85.53 64.192 85.53 62.912C86.1273 62.656 86.3833 62.0587 86.298 61.12C86.2127 60.096 86.5113 58.8587 87.194 57.408C87.0233 57.2373 86.7247 56.8107 86.298 56.128C85.9567 55.36 85.7007 55.0187 85.53 55.104C85.3593 55.1893 85.1033 55.232 84.762 55.232C84.25 55.232 83.9087 55.0613 83.738 54.72C83.5673 54.2933 83.3967 53.9947 83.226 53.824C83.1407 53.824 82.8847 53.696 82.458 53.44C82.0313 53.184 81.562 52.8427 81.05 52.416C80.538 51.9893 80.0687 51.4347 79.642 50.752C79.3007 50.0693 79.13 49.2587 79.13 48.32C78.7033 48.7467 78.362 48.96 78.106 48.96C78.106 48.7893 77.978 48.576 77.722 48.32C77.466 47.9787 77.338 47.7227 77.338 47.552C78.106 46.016 78.7887 44.9493 79.386 44.352C79.9833 43.6693 80.4527 43.1147 80.794 42.688C81.2207 42.2613 81.5193 41.8347 81.69 41.408C81.946 40.9813 82.074 40.256 82.074 39.232C82.074 38.208 81.69 37.1413 80.922 36.032C80.154 34.8373 79.77 33.8133 79.77 32.96H79.898C80.0687 32.96 80.1967 32.6613 80.282 32.064C80.3673 31.4667 80.41 30.9973 80.41 30.656C81.2633 30.656 81.946 30.5707 82.458 30.4C83.0553 30.2293 83.5673 30.016 83.994 29.76C84.506 29.504 84.9753 29.2907 85.402 29.12C85.8287 28.9493 86.3407 28.864 86.938 28.864C86.938 28.864 87.45 28.6507 88.474 28.224C89.5833 27.7973 90.778 27.2853 92.058 26.688C93.338 26.0907 94.4473 25.5787 95.386 25.152C96.41 24.7253 96.8793 24.512 96.794 24.512C98.842 24.512 100.421 24.5973 101.53 24.768C102.725 24.8533 103.621 25.024 104.218 25.28C104.901 25.4507 105.37 25.664 105.626 25.92C105.882 26.176 106.095 26.3893 106.266 26.56L105.626 27.2L105.882 27.584C105.541 28.0107 105.157 28.352 104.73 28.608C104.303 28.7787 104.005 28.992 103.834 29.248L104.218 29.632C103.706 30.144 103.45 30.4427 103.45 30.528V30.656C103.279 30.656 102.938 30.8693 102.426 31.296C101.999 31.7227 101.573 31.936 101.146 31.936C100.549 32.7893 99.7807 33.216 98.842 33.216C97.9887 33.216 97.306 33.6 96.794 34.368C96.6233 34.2827 96.3673 34.24 96.026 34.24C95.0873 34.24 94.1913 34.6667 93.338 35.52C92.4847 36.3733 91.5887 36.8853 90.65 37.056C90.2233 38.848 89.8393 40.2133 89.498 41.152C89.1567 42.0053 88.986 43.1573 88.986 44.608C89.0713 45.0347 89.242 45.248 89.498 45.248C90.01 45.248 90.778 45.0773 91.802 44.736C92.826 44.3947 93.9353 43.968 95.13 43.456C96.41 42.944 97.6473 42.3893 98.842 41.792C100.122 41.1093 101.146 40.4267 101.914 39.744L103.578 40.768C103.493 40.768 103.45 40.8107 103.45 40.896C103.45 41.0667 103.578 41.2373 103.834 41.408C104.09 41.5787 104.389 41.664 104.73 41.664C105.242 41.664 105.626 41.664 105.882 41.664C106.223 41.5787 106.479 41.536 106.65 41.536C106.821 41.536 107.034 41.6213 107.29 41.792C107.29 42.048 107.375 42.2187 107.546 42.304C107.802 42.304 108.101 42.3893 108.442 42.56C108.783 42.6453 109.167 42.816 109.594 43.072C110.021 43.328 110.49 43.712 111.002 44.224L111.386 44.608C110.874 45.7173 110.575 46.4853 110.49 46.912C110.405 47.2533 110.021 47.5947 109.338 47.936V48.064C109.338 48.32 109.167 48.576 108.826 48.832C108.485 49.088 108.058 49.3867 107.546 49.728C107.119 49.984 106.735 50.3253 106.394 50.752C106.053 51.0933 105.882 51.52 105.882 52.032H105.626C105.626 52.544 105.541 53.0987 105.37 53.696C105.199 54.208 104.943 54.5493 104.602 54.72L104.858 55.488C104.431 55.5733 104.218 55.7013 104.218 55.872C104.218 56.0427 104.005 56.3413 103.578 56.768C103.578 57.1093 103.578 57.28 103.578 57.28C103.663 57.1947 103.749 57.2373 103.834 57.408C103.237 57.92 103.023 58.432 103.194 58.944C103.365 59.3707 103.237 59.7973 102.81 60.224L103.194 60.48C102.085 61.9307 101.103 62.8267 100.25 63.168C99.482 63.424 99.098 63.808 99.098 64.32V64.576L100.122 64.32L100.506 64.576L100.762 64.32H101.146C101.317 64.32 101.402 64.4053 101.402 64.576C101.487 64.6613 101.615 64.7893 101.786 64.96C100.762 65.472 100.122 66.112 99.866 66.88C99.6953 67.5627 99.4393 68.3733 99.098 69.312L99.482 69.696C99.482 69.696 99.354 69.7813 99.098 69.952C98.9273 70.1227 98.714 70.2933 98.458 70.464C98.2873 70.5493 98.1167 70.6773 97.946 70.848C97.7753 71.0187 97.7327 71.104 97.818 71.104H98.842V71.744L99.482 71.36C99.482 71.616 99.2687 72.256 98.842 73.28C98.4153 74.2187 98.074 74.944 97.818 75.456L98.074 75.84C97.9887 76.1813 97.9033 76.4373 97.818 76.608C97.818 76.6933 97.818 76.7787 97.818 76.864C98.4153 76.4373 98.7567 76.096 98.842 75.84C98.9273 75.584 99.1833 75.456 99.61 75.456C99.5247 75.6267 99.354 75.968 99.098 76.48C98.9273 76.9067 98.714 77.376 98.458 77.888C98.2873 78.4 98.1167 78.8693 97.946 79.296C97.8607 79.7227 97.818 79.936 97.818 79.936H97.946C98.202 79.936 98.5007 79.7227 98.842 79.296C99.2687 78.784 99.482 78.3573 99.482 78.016V77.888H99.098V77.504C99.354 77.3333 99.6953 76.9067 100.122 76.224C100.634 75.456 100.975 75.1147 101.146 75.2V75.712C101.146 76.6507 100.847 77.376 100.25 77.888C99.738 78.4 99.482 78.8693 99.482 79.296V79.552H100.122V79.936C99.9513 79.936 99.5673 80.2347 98.97 80.832C98.3727 81.344 97.7327 82.0267 97.05 82.88C96.4527 83.7333 95.898 84.6293 95.386 85.568C94.874 86.4213 94.618 87.1893 94.618 87.872C94.618 88.2987 94.6607 88.5973 94.746 88.768H107.93L108.954 88.384C109.295 88.5547 109.722 88.6827 110.234 88.768C110.746 88.8533 111.13 89.1947 111.386 89.792V90.048C110.959 90.7307 110.575 91.2 110.234 91.456C109.978 91.7973 109.765 92.0533 109.594 92.224C109.423 92.48 109.253 92.6933 109.082 92.864C108.911 93.12 108.741 93.4613 108.57 93.888C106.351 93.9733 104.474 94.1013 102.938 94.272C101.487 94.528 100.165 94.784 98.97 95.04C97.8607 95.296 96.794 95.5093 95.77 95.68C94.746 95.8507 93.594 95.936 92.314 95.936H92.058C91.546 95.936 90.9487 96.1493 90.266 96.576C89.5833 97.0027 88.986 97.216 88.474 97.216C87.5353 97.216 86.4687 97.5573 85.274 98.24C84.1647 98.9227 83.098 99.264 82.074 99.264C81.1353 99.264 80.3673 99.3493 79.77 99.52C79.1727 99.776 78.6607 100.032 78.234 100.288C77.8927 100.544 77.5513 100.757 77.21 100.928C76.954 101.184 76.6553 101.312 76.314 101.312C75.8873 101.312 75.418 101.269 74.906 101.184C74.4793 101.099 74.0953 100.843 73.754 100.416ZM100.762 68.288H100.89C101.061 68.288 101.359 68.416 101.786 68.672L102.554 68.032C102.554 68.1173 102.554 68.2027 102.554 68.288C102.639 68.288 102.682 68.3307 102.682 68.416C102.682 68.7573 102.511 69.0133 102.17 69.184C101.914 69.2693 101.573 69.44 101.146 69.696C100.89 69.6107 100.762 69.44 100.762 69.184C100.762 68.8427 100.762 68.544 100.762 68.288ZM98.074 82.24C98.5007 81.8133 98.7993 81.4293 98.97 81.088C99.1407 80.7467 99.3967 80.576 99.738 80.576H100.122C99.7807 81.1733 99.354 81.6427 98.842 81.984C98.842 82.1547 98.842 82.2827 98.842 82.368C98.9273 82.368 99.0127 82.4533 99.098 82.624C98.9273 82.7093 98.842 82.752 98.842 82.752C98.5007 82.752 98.2447 82.5813 98.074 82.24ZM102.17 71.36C101.743 72.2987 101.274 72.896 100.762 73.152H100.506C100.421 73.152 100.378 73.1093 100.378 73.024C100.378 72.9387 100.421 72.8533 100.506 72.768C100.677 72.5973 100.847 72.4267 101.018 72.256L101.786 71.36H102.17ZM82.97 77.248C83.1407 77.248 83.226 77.376 83.226 77.632C83.226 77.888 83.1407 78.016 82.97 78.016C82.7993 78.016 82.714 77.888 82.714 77.632C82.714 77.376 82.7993 77.248 82.97 77.248ZM105.498 56.64C105.669 56.64 105.754 56.768 105.754 57.024C105.754 57.28 105.669 57.408 105.498 57.408C105.327 57.408 105.242 57.28 105.242 57.024C105.242 56.768 105.327 56.64 105.498 56.64ZM98.074 72.768C97.9033 72.768 97.818 72.896 97.818 73.152C97.818 73.3227 97.9033 73.408 98.074 73.408C98.2447 73.408 98.33 73.3227 98.33 73.152C98.33 72.896 98.2447 72.768 98.074 72.768ZM100.762 70.336C100.933 70.336 101.018 70.464 101.018 70.72C101.018 70.8907 100.933 70.976 100.762 70.976C100.591 70.976 100.506 70.8907 100.506 70.72C100.506 70.464 100.591 70.336 100.762 70.336ZM101.786 75.84C101.957 75.84 102.042 75.968 102.042 76.224C102.042 76.3947 101.957 76.48 101.786 76.48C101.615 76.48 101.53 76.3947 101.53 76.224C101.53 75.968 101.615 75.84 101.786 75.84ZM103.834 63.168C104.005 63.168 104.09 63.296 104.09 63.552C104.09 63.7227 104.005 63.808 103.834 63.808C103.663 63.808 103.578 63.7227 103.578 63.552C103.578 63.296 103.663 63.168 103.834 63.168ZM110.362 44.352C110.191 44.352 110.106 44.48 110.106 44.736C110.106 44.9067 110.191 44.992 110.362 44.992C110.533 44.992 110.618 44.9067 110.618 44.736C110.618 44.48 110.533 44.352 110.362 44.352ZM101.786 74.176C101.957 74.176 102.042 74.2613 102.042 74.432C101.957 74.5173 101.871 74.56 101.786 74.56H101.53V74.432C101.53 74.2613 101.615 74.176 101.786 74.176ZM102.81 64.064C102.81 64.2347 102.725 64.32 102.554 64.32H102.426V64.064C102.511 63.8933 102.554 63.808 102.554 63.808C102.725 63.808 102.81 63.8933 102.81 64.064ZM103.194 65.856V66.24L102.81 66.624V66.24L103.194 65.856ZM109.722 47.04H110.106L110.362 46.656L109.722 47.04Z" fill="black"/>
</svg>
